Motion_sv05_j
version=1
nRows=8
nColumns=43
inDegrees=yes
endheader
time	pelvis_tilt	pelvis_list	pelvis_rotation	pelvis_tx	pelvis_ty	pelvis_tz	hip_flexion_r	hip_adduction_r	hip_rotation_r	knee_angle_r	ankle_angle_r	subtalar_angle_r	mtp_angle_r	hip_flexion_l	hip_adduction_l	hip_rotation_l	knee_angle_l	ankle_angle_l	subtalar_angle_l	mtp_angle_l	lumbar_extension	lumbar_bending	lumbar_rotation	neck_flexion	neck_lateral_bending	neck_rotation	arm_flex_r	arm_add_r	arm_rot_r	elbow_flex_r	pro_sup_r	wrist_flex_r	wrist_dev_r	hand_finger_flex_r	arm_flex_l	arm_add_l	arm_rot_l	elbow_flex_l	pro_sup_l	wrist_flex_l	wrist_dev_l	hand_finger_flex_l
      3.55250000	     -3.17530611	    -20.70191560	    -83.57674165	     -0.07870095	      0.88279625	     -0.15046760	     16.63411790	     -1.57746420	     -7.63611190	    -30.20301324	     -0.21304582	      5.45203534	     -6.15413378	    -49.99149063	     -8.67495320	    -31.86012492	     -9.71107350	     21.18893850	     33.03202915	     25.97472150	    -46.26227431	      9.65658743	      0.43217497	     -5.40385446	     -4.33736659	     -7.70285888	    -18.45151820	     -9.32130267	    -16.94979600	     82.28509236	    132.83241221	     -0.99117319	     -4.82728381	    -22.55157159	    -16.23984375	    -18.38257993	    -20.73826319	    102.80661041	    138.35939625	    -24.28115139	    -13.39775820	     12.97434805
      3.55500000	     -3.22984626	    -20.48459829	    -83.49210784	     -0.07899308	      0.88245475	     -0.14794405	     17.08156978	     -1.52984668	     -7.60346434	    -30.89374051	      0.28030853	      5.40528854	     -5.97865084	    -49.88250360	     -8.84618050	    -31.90946765	     -9.74203323	     20.94918074	     33.21269285	     26.10260992	    -46.29776561	      9.87278995	      0.46758551	     -4.68110113	     -4.42529387	     -7.48810372	    -18.14158824	     -9.41827746	    -16.83371314	     82.57302524	    133.05050105	     -1.31399057	     -4.78158620	    -22.84466655	    -15.47115813	    -18.51685779	    -20.46518987	    103.18814129	    138.36229946	    -24.41756295	    -13.35040078	     12.99971947
      3.55750000	     -3.26622736	    -20.23936661	    -83.40126257	     -0.07930670	      0.88203883	     -0.14540996	     17.56970772	     -1.49843385	     -7.58448933	    -31.62392801	      0.76590884	      5.26968343	     -5.78327990	    -49.74345876	     -8.99142655	    -31.94918586	     -9.77615374	     20.70001263	     33.39100250	     26.25345027	    -46.31087168	     10.07455584	      0.50388054	     -3.92175689	     -4.52169848	     -7.26019971	    -17.83190331	     -9.49479717	    -16.74575264	     82.89089326	    133.30954236	     -1.62749422	     -4.73985669	    -23.16574563	    -14.69378200	    -18.65289379	    -20.17493619	    103.60097521	    138.36085903	    -24.56215914	    -13.27821760	     13.04441678
      3.56000000	     -3.28819667	    -19.97003646	    -83.32386486	     -0.07958888	      0.88161438	     -0.14284561	     18.07916336	     -1.50140426	     -7.55047461	    -32.37996775	      1.20323660	      5.04673030	     -5.58059312	    -49.58277453	     -9.11931629	    -31.97452078	     -9.80367779	     20.45509960	     33.56065296	     26.42798481	    -46.30288295	     10.25805841	      0.52493690	     -3.16585429	     -4.62199442	     -7.03338531	    -17.50049516	     -9.56460160	    -16.66582222	     83.21554876	    133.61903588	     -1.90819519	     -4.69911516	    -23.50321412	    -13.90471415	    -18.77854241	    -19.85319160	    104.02211407	    138.35497073	    -24.71017944	    -13.18190576	     13.10960607
      3.56250000	     -3.29076673	    -19.67233623	    -83.24311436	     -0.07988812	      0.88111262	     -0.14026442	     18.62441103	     -1.51685648	     -7.50634403	    -33.14868665	      1.60228149	      4.73154316	     -5.37691512	    -49.39142561	     -9.21908187	    -31.98134436	     -9.82558827	     20.19830227	     33.72619115	     26.62426504	    -46.26257021	     10.42608698	      0.54256355	     -2.39607929	     -4.72273533	     -6.80053973	    -17.16842533	     -9.62428123	    -16.60977294	     83.56366467	    133.98721588	     -2.16687758	     -4.65746890	    -23.85552147	    -13.10372376	    -18.91540583	    -19.52414471	    104.45458697	    138.34352397	    -24.87102896	    -13.06533317	     13.19135116
      3.56500000	     -3.11952540	    -19.00111463	    -83.46382996	     -0.08057116	      0.87999009	     -0.13763201	     19.71165788	     -1.59391842	     -6.83965756	    -34.07642915	      1.77871767	      4.07716708	     -4.24489925	    -48.85850165	     -8.87327259	    -32.10856888	     -9.79519911	     19.79473505	     33.88140134	     28.40929523	    -45.82453718	     10.21138964	      0.60761305	     -1.83012592	     -4.87025426	     -6.63507044	    -16.77055772	     -9.69635871	    -16.57121529	     83.85554991	    135.57912025	     -1.67938861	     -4.54552941	    -25.53876034	    -12.29697254	    -19.08526493	    -18.97976734	    104.81024671	    138.32885187	    -25.91506937	    -12.40840068	     14.21025123
      3.56750000	     -3.15873558	    -18.81301787	    -83.29366964	     -0.08082065	      0.87968114	     -0.13503813	     20.08938106	     -1.59884569	     -6.97133956	    -34.79717528	      2.07962277	      3.78370993	     -4.14287517	    -48.77149264	     -9.09680541	    -32.04080272	     -9.82002515	     19.52459647	     34.02363868	     28.49467669	    -45.90250716	     10.47573294	      0.60058515	     -1.04631662	     -4.94229072	     -6.37125536	    -16.45128765	     -9.73498004	    -16.55837635	     84.29499849	    135.66093889	     -1.86090865	     -4.56664062	    -25.73369558	    -11.46043624	    -19.24605681	    -18.68919945	    105.26452391	    138.35412102	    -25.93719185	    -12.52813848	     14.28170218
      3.57000000	     -3.02825064	    -18.43703352	    -83.13504514	     -0.08106618	      0.87915092	     -0.13263519	     20.67701516	     -1.73936072	     -6.84613904	    -35.47296885	      2.25303097	      3.11750893	     -4.00125749	    -48.43848184	     -9.17201569	    -31.91887465	     -9.93762317	     19.40486259	     34.44576259	     28.88609820	    -45.81259252	     10.56306083	      0.56650988	     -0.20533838	     -5.03613570	     -6.11040453	    -16.12420991	     -9.79227604	    -16.48548608	     84.70552754	    136.22883605	     -2.26198346	     -4.49333422	    -26.27530952	    -10.48064580	    -19.40341098	    -18.22621624	    105.63924149	    138.29676581	    -26.16519211	    -12.40813717	     14.47436235
